<svg version="1.1" xmlns="http://www.w3.org/2000/svg" viewBox="0 0 1330.1435955154896 273.4608052921786">
  <!-- svg-source:excalidraw -->
  <defs>
    <style>
      @font-face {
        font-family: "Virgil";
        src: url("https://excalidraw.com/FG_Virgil.woff2");
      }
      @font-face {
        font-family: "Cascadia";
        src: url("https://excalidraw.com/Cascadia.woff2");
      }
    </style>
  </defs>
  <g><g transform="translate(10.985995284495857 259.25441535388364) rotate(0 654.0858024732489 -12.436974009379469)"><path d="M0.31025799661874776 0.4637547835707665 C15.52925402869781 0.3419223969181379, 70.03975218683482 0.06973778655131668, 90.62278274446726 -0.5299230709671974 C111.2058133020997 -1.1295839284857114, 108.06790295193593 -1.535383142530918, 123.80844134241343 -3.1342103615403176 C139.54897973289093 -4.733037580549717, 157.05678522338468 -8.117747622231644, 185.06601308733224 -10.122886385023595 C213.0752409512798 -12.128025147815546, 227.0386418397228 -14.639546407759191, 291.86380852609875 -15.165042938292027 C356.6889752124747 -15.690539468824863, 495.8480593894919 -11.259194212655226, 574.0170132055879 -13.275865568220615 C652.1859670216838 -15.292536923786004, 703.0633744612337 -24.94213700046142, 760.8775314226747 -27.26507107168436 C818.6916883841157 -29.588005142907303, 877.1250330184896 -28.54639885971944, 920.9019549742341 -27.213469995558263 C964.6788769299785 -25.880541131397088, 984.6332466498017 -22.772451795637608, 1023.5390631571412 -19.26749788671732 C1062.4448796644806 -15.76254397779703, 1122.2629665270447 -8.721158438424268, 1154.336854018271 -6.183746542036533 C1186.4107415094973 -3.6463346456487975, 1196.5625813220938 -5.519162668287755, 1215.9823881044983 -4.043026508390904 C1235.4021948869029 -2.566890348494053, 1255.4251411651571 1.2981676762302714, 1270.8556947126986 2.67307041734457 C1286.28624826024 4.047973158458869, 1302.42130035311 4.135308506588141, 1308.5657093897462 4.206389938294888 M-0.9859952844958753 -0.33837790039367976 C14.232335188112533 -0.8474314949630449, 69.55789188784547 -2.2087547279118254, 90.25599509668537 -2.436469150753692 C110.95409830552526 -2.6641835735955586, 107.35573730162966 -0.5834890764672307, 123.20262396854349 -1.7046644374448805 C139.04951063545732 -2.82583979842253, 157.40524818362977 -6.892193631601209, 185.33731509816832 -9.16352131661959 C213.26938201270687 -11.434849001637971, 226.32532356135238 -14.546161626549438, 290.79502545577475 -15.332630547555164 C355.2647273501971 -16.11909946856089, 493.66483316542894 -11.652255956005925, 572.1555264647026 -13.882334842653945 C650.6462197639762 -16.112413729301963, 703.8199611796159 -26.954653967789685, 761.7391852514166 -28.71310386744328 C819.6584093232174 -30.471553767096875, 875.758503115795 -25.861331837844727, 919.6708708955068 -24.43303424057551 C963.5832386752187 -23.00473664330629, 986.0334595639724 -23.614871861906725, 1025.213391929688 -20.143318283827977 C1064.3933242954035 -16.67176470574923, 1122.9639476506134 -6.481342663836356, 1154.7504650898 -3.6037127721030267 C1186.5369825289865 -0.7260828803696975, 1196.2798364553073 -3.8466273206193, 1215.9324965648075 -2.877538933428004 C1235.5851566743077 -1.9084505462367085, 1257.1289084691025 1.1296964293004323, 1272.6664257468003 2.210817551044747 C1288.2039430244981 3.291938672789062, 1303.4457398028392 3.5519863943538317, 1309.1576002309937 3.6091877970378845" stroke="#00ffd9" stroke-width="2" fill="none"></path></g></g><g><g transform="translate(355.1003926059243 241.0093756713439) rotate(0 20.24271719636255 -40.21357490417549)"><path d="M-0.7435704365372657 -0.8885420903563499 C5.469866285335131 -12.78428017105217, 30.656260787833588 -58.577148214810414, 37.45368001974289 -72.01020448986026 C44.25109925165219 -85.44326076491011, 39.79137010822698 -80.15724420354323, 40.040944954918544 -81.48687974065543 M1.0669163549412044 1.259369366867468 C7.070855251012228 -10.935917971881658, 29.892447929715843 -60.2276224164468, 36.28763167064738 -73.83006367914895 C42.682815411578915 -87.43250494185109, 39.02118291809849 -79.00309889589988, 39.43801880053043 -80.35527820934541" stroke="#ffa7ca" stroke-width="2" fill="none"></path></g></g><g><g transform="translate(392.06653843925756 167.94947983801052) rotate(0 19.46402572145064 35.79741973056994)"><path d="M-1.0649627789855003 1.1816955909132958 C-0.8250661618731555 0.33714512790794504, -0.12817805238341107 -7.369022388094008, 2.629084253476776 -4.038930980530063 C5.386346559336964 -0.7088395729661183, 9.679708249646328 9.415900153418344, 15.478611056175623 21.162244036296965 C21.277513862704918 32.90858791917559, 33.3818149179773 57.2987853075067, 37.42250109265255 66.43913231674166 C41.463187267327804 75.57947932597662, 39.46977425874387 74.58473109211083, 39.722728104227144 76.00432609170676 M0.5767930327076467 0.7564818308036774 C0.627007748186252 0.6068576055603011, -0.7460153120317785 -5.781382874454275, 2.1156700020915196 -2.6782595982537214 C4.977355316214817 0.4248636779468322, 11.816671153207398 7.642217949855416, 17.746904917447438 19.375221488006996 C23.677138681687477 31.10822502615858, 34.26816673177235 58.20718900812477, 37.69707258753176 67.71976163065577 C41.12597844329117 77.23233425318676, 37.93480679376226 74.89022896526623, 38.32034005200389 76.45065722319298" stroke="#ffa7ca" stroke-width="2" fill="none"></path></g></g><g><g transform="translate(395.0613301059243 160.7576395602328) rotate(0 -1.5505434193725023 -45.17843812058371)"><path d="M-0.904281435906887 0.6308073386549948 C-0.938580285012722 -1.610905441697014, 1.3245962992310525 -7.974771299351244, 0.9010442152619362 -14.106490646633938 C0.47749213129282 -20.238209993916634, -2.74601019206973 -26.93506473186946, -3.4455939397215847 -36.15950874504117 C-4.145177687373439 -45.383952758212885, -3.914359569384055 -60.31512558653401, -3.296458270649191 -69.45315472566422 C-2.6785569719143267 -78.59118386479443, -0.221776702503439 -87.1060074657754, 0.26181385268760105 -90.98768357982242 M0.8218320809025319 -0.08362275389023122 C0.611505047203973 -2.1418340096150312, 1.2075037686247376 -6.7283161967603995, 0.4260469646472482 -13.038775068228752 C-0.3554098393302412 -19.349233939697104, -3.2817530294373087 -28.637567302291828, -3.866908742962405 -37.946375982700346 C-4.452064456487501 -47.255184663108864, -3.5359364274258636 -60.181640122648425, -3.0848873165033277 -68.89162715067987 C-2.633838205580792 -77.60161417871132, -1.794949481167596 -86.57920636328804, -1.1606140774271898 -90.206298150889" stroke="#ffa7ca" stroke-width="2" fill="none"></path></g></g><g><g transform="translate(391.0161912170354 66.7949659491216) rotate(0 5.548880263451508 -19.069747495912395)"><path d="M-1.0417797669768334 -0.5511317387223243 C3.4328237570546207 -0.7237114104407699, 21.582328748868505 -0.5750513281534608, 26.76081235690244 -0.9824491264090967 C31.939295964936377 -1.3898469246647325, 28.564728747639453 -1.430966448949418, 30.029121881226775 -2.995518528256139 C31.493515014814097 -4.56007060756286, 34.829422391068086 -7.5529760318221975, 35.547171158426366 -10.369761602249422 C36.264919925784646 -13.186547172676647, 34.62171675380735 -17.56723205883194, 34.33561448537644 -19.89623195081949 C34.04951221694553 -22.22523184280704, 35.36553580865825 -21.51062146574258, 33.83055754784091 -24.34376095417472 C32.29557928702357 -27.176900442606858, 27.599415796940068 -33.700702484614304, 25.12574492047238 -36.89506888141233 C22.65207404400469 -40.08943527821035, 20.852257543305537 -42.088019458618405, 18.988532289034765 -43.509959334962865 C17.124807034763993 -44.931899211307325, 16.974779002037344 -45.03576140685208, 13.94339339484775 -45.4267081394791 C10.912007787658153 -45.817654872106125, 4.895852062602857 -46.54045068174599, 0.8002186458971892 -45.85563973072501 C-3.2954147708084784 -45.17082877970403, -7.838811107752489 -42.34860963573057, -10.630407105386258 -41.31784243335325 C-13.422003103020026 -40.28707523097593, -13.87771130474636 -41.52059163975494, -15.949357339905418 -39.67103651646109 C-18.021003375064478 -37.82148139316725, -21.67878219446642 -34.09296534254592, -23.06028331634061 -30.220511693590186 C-24.441784438214796 -26.348058044634456, -25.261878739297316 -21.16630402246009, -24.238364071150546 -16.43631462272672 C-23.214849403003775 -11.706325222993351, -19.589679975697177 -5.280880031927833, -16.919195307459994 -1.8405752951899785 C-14.24871063922281 1.5997294415478756, -12.335599893828196 2.6829879803238175, -8.215456061727446 4.205513797700405 C-4.095312229626697 5.728039615076993, 4.3557090902218345 6.854906134086616, 7.801667685144503 7.2945796090695465 C11.247626280067172 7.734253084052477, 11.45484340295751 6.977443512115201, 12.460295507808564 6.843554647597989 M0.6121471260208637 1.7739201531093567 C4.964311141912232 1.7838430512451706, 20.680649920988557 1.5462480787605795, 25.98068296398238 0.45162522928071214 C31.280716006976206 -0.6429976201991552, 30.76839989528584 -2.6609984104221227, 32.412345383983805 -4.793816943769848 C34.05629087268177 -6.926635477117573, 35.256610142124714 -9.793044777407356, 35.84435589617017 -12.345285970805639 C36.43210165021563 -14.897527164203922, 36.05329861262297 -18.479325169782605, 35.93881990825656 -20.107264104159547 C35.82434120389016 -21.73520303853649, 36.91897710917147 -19.655604391964143, 35.15748366997173 -22.11291957706729 C33.39599023077199 -24.57023476217044, 27.698584155804333 -31.744851747789504, 25.36985927305813 -34.85115521477844 C23.041134390311925 -37.95745868176737, 22.773174813014126 -39.340493355332335, 21.185134373494503 -40.75074037900088 C19.59709393397488 -42.16098740266943, 19.18731072404839 -42.36700821171716, 15.841616635940387 -43.31263735678973 C12.495922547832384 -44.258266501862295, 5.521334420464331 -46.38155435052699, 1.1109698448464815 -46.4245152494363 C-3.2993947307713682 -46.467476148345604, -7.524006835277769 -45.131573008469594, -10.620570817766712 -43.570402750245584 C-13.717134800255655 -42.009232492021575, -15.48267679055573 -39.67955714389646, -17.468414050087176 -37.05749370009223 C-19.454151309618624 -34.435430256288, -21.31263260999238 -31.246373196061736, -22.534994374955385 -27.838022087420203 C-23.75735613991839 -24.42967097877867, -25.80237580138251 -20.879987936974345, -24.80258463986521 -16.60738704824304 C-23.80279347834791 -12.334786159511737, -18.95591749346942 -5.88210041584202, -16.536247405851572 -2.2024167550323774 C-14.116577318233723 1.4772669057772654, -14.224751815575447 3.7305733187058676, -10.284564114158119 5.470714916614815 C-6.344376412740791 7.210856514523763, 2.9775781301764512 7.955333783433727, 7.104878802652392 8.238432832421308 C11.232179475128333 8.521531881408889, 13.527905037380721 7.455598754943853, 14.479239920697523 7.1693092105403" stroke="#ffa7ca" stroke-width="2" fill="none"></path></g></g><g><g transform="translate(423.53355232814647 27.984202060232747) rotate(0 -30.408959535973736 12.437068339673345)"><path d="M-0.6777253255248069 -0.07918840795755377 C-7.322736183636706 3.706916940488196, -28.81207390874617 18.904280308275304, -38.80884885241581 23.088468644188502 C-48.80562379608544 27.2726569801017, -57.32499618690323 25.28102379976598, -60.65837498754263 25.025941607521634 C-63.99175378818203 24.77085941527729, -59.229762190194 22.148015060082663, -58.80912165625223 21.557975490722434 M1.167330149235204 -1.1663662674743682 C-5.667626969030943 2.7538151753007387, -29.03168001729056 20.367814761814483, -39.391305588561345 24.39935816277542 C-49.75093115983213 28.43090156373636, -57.80338939725283 23.872367014007764, -60.9904232783895 23.022894138291264 C-64.17745715952617 22.173421262574763, -58.81146752485552 19.449805613441978, -58.513508875381355 19.302520908476414" stroke="#000000" stroke-width="2" fill="none"></path></g></g><g><g transform="translate(422.75230232814647 24.86788261578829) rotate(0 -31.064661332606363 9.358073105135844)"><path d="M1.1659833803772928 0.7837541922926903 C-1.7175391919634875 0.5754737578608361, -6.302059999936107 -5.0653113163731724, -17.012668561769807 -1.4652910260690646 C-27.72327712360351 2.1347292642350437, -55.12831653825662 18.271733666183742, -63.097667990624906 22.383875934117338 M0.3189859257359058 0.14962119790725414 C-2.2254198727015044 -0.392866146955985, -4.224058545938538 -7.107125399802226, -14.826440541159517 -3.272508146867369 C-25.428822536380494 0.5621091060674877, -54.945937742094536 18.5786032061282, -63.29530604558997 23.157324715516395" stroke="#000000" stroke-width="2" fill="none"></path></g></g><g><g transform="translate(363.19501066147984 47.56753539356606) rotate(0 -4.440338963917043 19.27316222041847)"><path d="M-1.1932310208678245 -0.8546083107590675 C-2.777779435945888 5.071231715601914, -7.816067695452151 28.973905933179303, -8.663914484282373 34.95823476297994 C-9.511761273112594 40.94256359278058, -7.667804829113981 41.035512818947986, -6.28031175384915 35.05136466804477 C-4.8928186785843195 29.067216517141553, -1.3953230432338122 4.758052514051949, -0.33895603269338603 -0.9466541424393653 M0.3811839638371022 1.3111183807533235 C-1.3649858975524352 6.928123505960264, -8.463428094100458 27.270102780765264, -9.190788489657802 33.103121285598995 C-9.918148885215146 38.936139790432726, -5.469775007179803 41.88304740367699, -3.9829784095069636 36.309229409755716 C-2.4961818118341244 30.73541141583444, -0.7033835896301124 5.437417418245156, -0.2700089036207647 -0.33978667792864137" stroke="#000000" stroke-width="2" fill="none"></path></g></g><g><g transform="translate(412.97799677259104 55.4842020602328) rotate(0 5.51554571009342 0.02998445795381599)"><path d="M-0.3060033425688743 0.9126508578658103 C1.5786028263193508 0.8589331969618798, 9.28104846935577 0.9001839503645898, 11.337094762755715 0.8327165946364403 M1.7342061732430012 0.34618861290626235 C3.4730500037909433 0.4686369282286615, 8.814183605842732 -0.5336426874715834, 10.47806832040862 -0.8526819419581443" stroke="#ffa7ca" stroke-width="2" fill="none"></path></g></g><g><g transform="translate(415.71671205036876 27.775868726899432) rotate(0 -24.92646358215717 10.340073423614797)"><path d="M0.5746913328766823 -0.67467070966959 C-0.9631011572701065 -0.06620564035795451, -6.2042184527825945 2.8101282338853215, -8.439548683000998 3.684064528511624 C-10.674878913219402 4.5580008231379265, -13.924674899324282 5.577367590809284, -12.837290048433738 4.5689470580882245 C-11.749905197543194 3.560526525367165, -0.9819349234303788 -3.4097398291583394, -1.915239577657735 -2.3664586678147317 C-2.848544231885091 -1.323177506471124, -16.638764367114646 9.42818061229252, -18.437117973797875 10.82863402614987 C-20.235471580481104 12.229087440007222, -12.958854998317062 6.710868136805489, -12.705361217757105 6.0362618153293734 C-12.451867437197148 5.361655493853258, -17.581448353495933 6.790932336394445, -16.916155290438134 6.780996097293178 C-16.250862227380335 6.771059858191911, -10.965432959850204 7.017105488258369, -8.713602839410305 5.976644380721768 C-6.461772718970405 4.936183273185168, -3.5779728075420016 1.5154636195964315, -3.4051745677987357 0.5382294520735741 C-3.23237632805547 -0.4390047154492833, -5.154229571918647 -1.7641035849849667, -7.676813400950709 0.11323937558462371 C-10.199397229982772 1.990582336154214, -18.11946909499392 10.80586879060222, -18.540677541991112 11.802287215491116 C-18.961885988988303 12.798705640380012, -10.361978052115052 7.0196280698533196, -10.20406408293386 6.0917499249179965 C-10.046150113752667 5.163871779982673, -15.274499137147806 5.341878752189643, -17.59319372690395 6.235018345879178 C-19.911888316660097 7.1281579395687125, -24.529809766179998 11.753731587032487, -24.116231621470728 11.450587487055202 C-23.70265347676146 11.147443387077917, -16.12157855900358 5.498479036766049, -15.111724858648335 4.41615374601547 C-14.10187115829309 3.333828455264891, -15.308636172446965 3.278123054515409, -18.05710941933926 4.956635742551725 C-20.80558266623155 6.635148430588042, -31.203314420746523 14.027825315627746, -31.602564340002097 14.487229874233368 C-32.00181425925767 14.946634432838989, -21.635364099619615 8.71732504174664, -20.452608934872707 7.713063094185452 C-19.2698537701258 6.708801146624264, -22.059044106635753 6.715753815626645, -24.50603335152066 8.461658188866238 C-26.953022596405567 10.207562562105831, -35.05098023751265 17.467908729281714, -35.13454440418216 18.18848933362301 C-35.21810857085167 18.909069937964308, -26.273272825004966 13.69121418954047, -25.00741835153774 12.785141814914027 C-23.741563878070515 11.879069440287584, -24.712009470385546 11.008100390268723, -27.539417563378812 12.752055085864345 C-30.36682565637208 14.496009781459968, -41.45200462677967 23.905725534591348, -41.97186690949734 23.248869988487762 C-42.491729192215004 22.592014442384176, -31.935277608423345 10.62162398304099, -30.65859125968484 8.810921809242824 C-29.381904910946336 7.000219635444657, -31.733535229552643 10.20501991096468, -34.31174881706632 12.38465694569876 C-36.88996240457999 14.56429398043284, -45.425139396996386 21.460114345561504, -46.12787278476687 21.88874401764731 C-46.83060617253736 22.317373689733113, -37.6426476194351 14.40722521217886, -38.528149143689234 14.956434978213588 C-39.413650667943365 15.505644744248317, -51.31106532221591 25.030761871348886, -51.44088193029165 25.184002613855682 C-51.570698538367395 25.337243356362478, -41.514570384389856 16.76177720212269, -39.3070487921437 15.875879433254363 C-37.09952719989755 14.989981664386036, -39.199261981304105 19.42371412984754, -38.195752376814724 19.868616000645716 C-37.19224277232534 20.313517871443892, -33.829034427194614 17.845310718759286, -33.28599116520743 18.545290658043427 C-32.74294790322024 19.24527059732757, -39.21708759185349 26.141531884946176, -34.93749280489162 24.068495636350555 C-30.657898017929746 21.995459387754934, -12.22951486359036 8.726937451903432, -7.608422443436188 6.107073166469695 C-2.9873300232820155 3.4872088810359583, -8.480702454789848 9.207493493126455, -7.210938283966584 8.349309923748137 C-5.941174113143321 7.491126354369821, -1.0340527815399243 2.23005149877733, 0.010162581503391221 0.9579717501997946 M-0.582734446702525 1.5855232224147766 C-2.2625385885440883 2.3995493332603592, -7.219958693473824 4.612969827536423, -8.878253038537027 5.246118448868181 C-10.53654738360023 5.879267070199939, -11.228107767028241 7.009410652987701, -10.53250051708174 5.384414950405326 C-9.836893267135238 3.75941924782295, -3.1712805090131573 -4.960501495428312, -4.704609538858017 -4.503855766626075 C-6.237938568702877 -4.047210037823838, -18.65515688497749 5.984950855071105, -19.732474696150902 8.12428932321875 C-20.809792507324314 10.263627791366396, -11.662465833271368 8.222254057477237, -11.168516405898494 8.332175042259799 C-10.67456697852562 8.44209602704236, -17.07167160763826 9.244231632026615, -16.768778131913663 8.783815231914128 C-16.465884656189065 8.32339883180164, -11.31513349943727 7.192359081015877, -9.35115555155091 5.569676641584879 C-7.38717760366455 3.9469942021538804, -5.351796809865673 -0.48295254638314766, -4.984910444595503 -0.9522794046718628 C-4.618024079325332 -1.421606262960578, -5.000977572180952 1.0231757532835963, -7.149837359929884 2.753715491852588 C-9.298697147678816 4.48425523042158, -17.71853153318204 8.932915011826813, -17.878069171089095 9.430959026742087 C-18.03760680899615 9.929003041657362, -8.093833319876328 6.423997965339481, -8.107063187372209 5.741979581344233 C-8.120293054868089 5.059961197348985, -15.25527412466473 4.4424563227155724, -17.95744837606438 5.338848722770597 C-20.65962262746403 6.235241122825621, -24.799902909045223 11.337632339724038, -24.32010869577011 11.120333981674378 C-23.840314482494996 10.903035623624717, -16.258345385094916 5.387016781971735, -15.078683096413693 4.035058574472632 C-13.89902080773247 2.6831003669735294, -14.38313734880237 1.1718392026813953, -17.242134963682773 3.008584736679759 C-20.101132578563178 4.845330270678122, -31.531126300439123 14.270580674172855, -32.23266878569611 15.055531778462814 C-32.9342112709531 15.840482882752774, -23.08145176863268 8.769454111937353, -21.451389875224713 7.718291362419511 C-19.821327981816747 6.667128612901669, -20.30669693073772 7.286281589452096, -22.45229742524831 8.748555281355763 C-24.597897919758903 10.21082897325943, -33.8148099091321 15.915829986328694, -34.32499284228826 16.491933513841513 C-34.83517577544442 17.06803704135433, -26.72627391010566 12.955835293868432, -25.51339502418526 12.205176446432674 C-24.30051613826486 11.454517598996915, -24.236682455341374 10.298443587284767, -27.047719526765867 11.987980429226958 C-29.85875659819036 13.67751727116915, -42.0055414652497 23.04899574792524, -42.37961745273221 22.342397498085823 C-42.753693440214725 21.635799248246407, -30.388809768226782 9.330738111420143, -29.292175451660956 7.748390930190469 C-28.19554113509513 6.166043748960795, -33.09544423954386 10.495198625089166, -35.799811553337264 12.84831441070778 C-38.50417886713067 15.201430196326392, -44.718429893939906 21.074536384979055, -45.518379334421404 21.86708564390215 C-46.3183287749029 22.659634902825246, -39.74638289488061 17.33174418215986, -40.599508196226246 17.603609964246356 C-41.45263349757188 17.875475746332853, -50.83586536937324 23.59768553976138, -50.6371311424952 23.49828033642114 C-50.43839691561716 23.3988751330809, -41.212172445004015 17.822709296307373, -39.407102834958 17.007178744204925 C-37.60203322491199 16.191648192102477, -40.82614359253023 18.081458633492765, -39.806713482219145 18.605097023806458 C-38.78728337190806 19.12873541412015, -34.10409896847302 19.52483866877607, -33.290522173091496 20.149009086087077 C-32.476945377709974 20.773179503398083, -39.41341233178464 24.700010668343182, -34.92525270993002 22.350119527672497 C-30.4370930880754 20.000228387001812, -11.210161506809877 8.732822602661981, -6.36156444196376 6.049662242062973 C-1.5129673771176435 3.366501881463965, -7.158590188843504 7.1286829890755286, -5.8336703208533205 6.251157364078449 C-4.508750452863137 5.37363173908137, 0.7841061762413459 2.0211025584685656, 1.5879547659773379 0.7845084920804948" stroke="#000000" stroke-width="2" fill="none"></path></g></g><g><g transform="translate(361.98841343925756 47.15520900467715) rotate(0 -7.792893293162081 20.12052954420446)"><path d="M-0.6408479824662209 -0.7729616269469262 C-2.3261104205692087 4.605225508466932, -7.38402597214327 26.543930611952682, -10.032951299514934 33.0958419430588 C-12.681876626886599 39.64775327416492, -18.120714001467896 44.25410528022938, -16.534399946696205 38.53850635968979 C-14.948085891924515 32.8229074391502, -3.159712494026728 5.144589724529678, -0.5150669708847999 -1.1977515801787375 M1.2235680973995477 1.435629573566839 C-0.5242809268807893 6.366715342162745, -7.7981083028600455 24.78574458256132, -10.3671112995542 31.15848004771924 C-12.936114296248354 37.53121551287716, -15.828538751963967 44.98557408421443, -14.190449882765378 39.672042364514354 C-12.55236101356679 34.35851064481428, -3.099075331950418 5.701040310057023, -0.5385780843626709 -0.7227102704811841" stroke="#000000" stroke-width="2" fill="none"></path></g></g><g><g transform="translate(409.07174677259104 44.38177150467715) rotate(0 4.3016627460784775 -3.5315231722743192)"><path d="M0.39013923257589345 -0.38910432904958725 C2.1153576045676346 -1.2527574148994822, 7.898074230275689 -4.057267858198354, 9.46750189181821 -5.09430503828653 M-0.8641763996612281 -1.6389880471397191 C0.7755355024251368 -2.8254499354154756, 6.814820200273408 -6.022550098307872, 8.490545963062287 -6.673942015499033" stroke="#ffa7ca" stroke-width="2" fill="none"></path></g></g><g><g transform="translate(881.5500453837021 199.07361178245498) rotate(0 43.99639237261158 15.021276595635271)"><path d="M-0.11090460866689678 0.9236350402235984 C13.500452760579403 0.6757788453389139, 67.34383236583734 -4.055513340621049, 80.80299885554442 -0.5188065133160762 C94.26216534525149 3.017900313988897, 88.29721890748635 17.106892540554167, 80.64409432957555 22.143876004053435 C72.99096975166475 27.180859467552704, 45.06497555502032 28.374426109536877, 34.88425138807956 29.703094267679536 C24.703527221138806 31.031762425822194, 24.669029753461896 32.406236310192796, 19.559749327931012 30.11588495290939 C14.450468902400129 27.825533595625984, 7.289526540427301 21.026402641943204, 4.228568834894259 15.960986123979092 C1.1676111293612168 10.89556960601498, 1.705742897976332 2.234554372727871, 1.1940030947327613 -0.2766141548752785 M-1.6282682575564833 0.36293949100188927 C11.89963287228752 0.24895110797585868, 65.715829655616 -2.2143384346969226, 79.84814237441138 1.103992714247588 C93.98045509320676 4.422323863192099, 90.67110277099692 15.354868058987545, 83.1656080552158 20.272926384668953 C75.66011333943467 25.19098471035036, 45.59122585256857 28.94253906108192, 34.81517407972466 30.61234266833604 C24.039122306880756 32.282146275590165, 23.36931378431846 32.36668978742458, 18.50929741815237 30.29174802819368 C13.649281051986282 28.216806268962774, 8.939325995952654 23.50592030628446, 5.655075882728133 18.16269211295061 C2.3708257695036132 12.819463919616759, -0.3770816852542084 1.0890972513239832, -1.1962032611947508 -1.7676211318094284" stroke="#ffa7ca" stroke-width="2" fill="none"></path></g></g><g><g transform="translate(881.43719816148 175.4625006713439) rotate(0 47.85373240557385 -13.048527788894546)"><path d="M0.8290906772017477 1.036079205572605 C6.4506804526403885 1.33331111818552, 25.409512947941174 0.6295447951665587, 34.105200250777806 0.9443955793976782 C42.80088755361444 1.2592463636287976, 43.587449846278545 1.0614081931887123, 53.00321449422154 2.925183910959322 C62.41897914216453 4.788959628729931, 83.8448760499003 11.142447107975132, 90.59978813843577 12.127049886021336 C97.35470022697125 13.11165266406754, 92.7308421230426 14.930729030845274, 93.53268702543441 8.832800579236551 C94.33453192782622 2.7348721276278276, 96.99870997253387 -17.180840583918258, 95.4108575527866 -24.460520823631008 C93.82300513303932 -31.740201063343758, 88.037026690388 -32.39053105055186, 84.00557250695078 -34.84528085903994 C79.97411832351357 -37.30003066752802, 74.28416575750803 -38.582867470328495, 71.22213245216331 -39.189019674559475 C68.16009914681858 -39.795171878790455, 68.111197414056 -38.905887676002855, 65.63337267488241 -38.48219408442581 C63.155547935708825 -38.05850049284876, 59.832247455749275 -38.05224755588502, 56.35518401712179 -36.6468581250972 C52.87812057849431 -35.241468694309376, 48.27220556719423 -31.471431701989157, 44.77099204311753 -30.049857499698874 C41.269778519040834 -28.62828329740859, 39.10952046077545 -28.891599474847315, 35.3479028726616 -28.117412911355494 C31.58628528454775 -27.343226347863673, 26.11407603406231 -25.312987781288516, 22.201286514434422 -25.404738118747947 C18.288496994806533 -25.496488456207377, 14.073088360550067 -28.58667264851162, 11.871165754894264 -28.667914936112084 C9.669243149238461 -28.749157223712547, 10.94738462484535 -30.838730103715687, 8.989750880499605 -25.892191844350737 C7.032117136153859 -20.945653584985788, 1.4289841411842115 -3.466011637062934, 0.12536328881978998 1.01131462007761 M-0.1947754466067999 0.5344168431591241 C5.756614217263866 0.5820632580947129, 27.027175269018834 -0.7325544651208005, 36.28130418964235 -0.6823714901972562 C45.53543311026586 -0.6321885152737119, 46.33405651515503 -1.5080784700503647, 55.3299980771343 0.8355146927003898 C64.32593963911357 3.1791078554511443, 83.62415483642728 12.018751552450233, 90.25695356151796 13.37918748630727 C96.88975228660864 14.739623420164307, 94.5426813805679 15.43352903364185, 95.12679042767834 8.998130295842616 C95.71089947478879 2.5627315580433807, 96.0276449660263 -17.749769710376505, 93.76160784418066 -25.233204940488136 C91.49557072233502 -32.71664017059977, 84.89916342456256 -33.44823571014982, 81.53056769660449 -35.90248108482718 C78.16197196864643 -38.35672645950454, 76.41254230495079 -39.288545861384634, 73.55003347643225 -39.958677188552336 C70.6875246479137 -40.62880851572004, 67.16958274334908 -40.407657369394244, 64.35551472549326 -39.923269047833394 C61.54144670763745 -39.438880726272544, 59.84737775959594 -38.88735057317234, 56.66562536929734 -37.052347259187215 C53.48387297899873 -35.21734394520209, 48.99445809054383 -30.839877093541677, 45.26500038370165 -28.913249163922618 C41.535542676859464 -26.98662123430356, 38.14202482894841 -26.03324339796789, 34.28887912824425 -25.492579681472854 C30.435733427540082 -24.951915964977818, 26.050263080875162 -25.07805107833859, 22.14612617947666 -25.669266864952398 C18.241989278078158 -26.260482651566207, 13.002676456440424 -28.959695925036236, 10.864057719853244 -29.039874401155704 C8.725438983266065 -29.12005287727517, 10.920803504996936 -30.845966306568485, 9.314413759953577 -26.150337721669192 C7.708024014910219 -21.4547091367699, 2.6902362336518326 -4.986256132531148, 1.225719249593094 -0.8661028917599469" stroke="#ffa7ca" stroke-width="2" fill="none"></path></g></g><g><g transform="translate(883.5726148281465 175.2671881713439) rotate(0 39.6186017627889 10.318991045556373)"><path d="M-1.0460486993193625 -0.21676484495401382 C1.2824505631018612 -0.15545994545574332, 0.671667627217623 -1.4731124129008133, 13.808058113687594 0.013657201495448135 C26.944448600157564 1.5004268158917096, 69.69488353039378 5.26204494442095, 77.77229421950047 8.703852841423554 C85.84970490860715 12.145660738426159, 72.91011168355189 19.82503506767528, 62.27252224832773 20.664504583511075 C51.63493281310357 21.50397409934687, 21.958955457641082 17.055880743320266, 13.946757608155485 13.740669936438326 C5.934559758669888 10.425459129556389, 14.127115445832487 2.8455017485552236, 14.199335151414152 0.7732397422194481 M0.6056370041985066 -1.3761703338939697 C2.8379868128009322 -1.1151507215971037, 0.41040950560979716 -0.053900544229112723, 13.145701493079695 1.3372238376685028 C25.88099348054959 2.7283482195661186, 68.78099618204178 3.5558526450232875, 77.0173889290179 6.970575957491723 C85.25378167599402 10.385299269960159, 73.26162745899587 20.593031524326296, 62.56405797493644 21.82556371247912 C51.866488490876996 23.058095900631944, 21.18591445888606 17.993829839610658, 12.831972024661255 14.365769086408664 C4.478029590436451 10.737708333206669, 12.587942479473305 2.3572426244233506, 12.440403369587612 0.057199193267151616" stroke="#ffa7ca" stroke-width="2" fill="none"></path></g></g><g><g transform="translate(910.16376066148 140.3687506713439) rotate(0 29.66889652839245 -17.028724353677717)"><path d="M-0.29946986585855484 -0.5098948583006858 C5.4966640673853435 -1.4690231480532283, 25.94850317708856 -2.834678102257105, 35.354010245369366 -5.012765211363671 C44.75951731365017 -7.190852320470238, 52.010270393170586 -12.946965840845257, 56.13357254382627 -13.578417512940087 C60.25687469448195 -14.209869185034917, 59.12213961708311 -9.68694076521528, 60.09382314930345 -8.801475243932646 C61.065506681523786 -7.9160097226500135, 61.25240331121051 -7.559758763677518, 61.96367373714829 -8.26562438524429 C62.674944163086074 -8.971490006811063, 64.26816759534435 -11.436200724542104, 64.36144570493016 -13.036668973333281 C64.45472381451597 -14.637137222124458, 63.964027015202525 -15.124402860193385, 62.523342394663175 -17.868433877991357 C61.082657774123824 -20.61246489578933, 57.919095792428 -26.85243772560802, 55.71733798169407 -29.50085508012112 C53.51558017096014 -32.14927243463422, 52.76581569496127 -33.38628296835563, 49.312795530259606 -33.758938005069965 C45.859775365557944 -34.1315930417843, 42.97337617592669 -36.00707827304249, 34.999216993484104 -31.73678530040713 C27.02505781104152 -27.46649232777178, 7.95228613289402 -12.043561703904896, 1.4678404356041028 -8.13718016925784 C-5.0166052616858146 -4.230798634610785, -3.513768453233873 -9.726612528882654, -3.9074571902554 -8.298496092524806 C-4.301145927276927 -6.870379656166956, -1.5833759071098559 -0.7771563122117982, -0.8942919865250587 0.4315184488892556 M1.7441697252262385 -1.8231936042476447 C7.8424900978054835 -2.690708737502709, 28.55606028166308 -1.465683185775207, 37.47024463972784 -3.7623151336082947 C46.3844289977926 -6.058947081441382, 51.503883890832014 -14.429820226118789, 55.22927587361479 -15.602985291246169 C58.95466785639756 -16.77615035637355, 58.868108078464374 -12.003341429859594, 59.82259653642448 -10.801305524372573 C60.77708499438458 -9.599269618885552, 60.51592026544065 -7.802861120366569, 60.9562066213754 -8.390769858324047 C61.39649297731015 -8.978678596281524, 62.12430785817348 -13.099573699133432, 62.464314672033 -14.328757952117439 C62.804321485892515 -15.557942205101446, 64.21717051712687 -13.16442146985313, 62.99624750453249 -15.765875376228086 C61.77532449193811 -18.367329282603045, 57.12078890681487 -27.23411315693591, 55.138776596466705 -29.937481390367182 C53.15676428611854 -32.64084962379845, 54.84107006617406 -31.71253015551, 51.10417364244349 -31.986084776815723 C47.36727721871292 -32.25963939812145, 41.005405047449905 -35.741420975865246, 32.71739805408327 -31.57880911820153 C24.429391060716632 -27.416197260537814, 7.665678175458249 -10.766275086046559, 1.3761316822436673 -7.010413630833423 C-4.913414810970913 -3.254552175620286, -4.601437813526949 -10.184303235927331, -5.019880905204218 -9.04364038692271 C-5.438323996881487 -7.90297753791809, -1.9114956606624567 -1.3757800498021855, -1.13452686781995 -0.16643653680570414" stroke="#ffa7ca" stroke-width="2" fill="none"></path></g></g><g><g transform="translate(904.595184272591 145.12569511578835) rotate(0 6.829153269759672 -2.6861951798174175)"><path d="M0.49071663469076165 -0.6173268422484398 C2.4216747414734376 -0.8093008622527122, 9.274559812909889 0.5669488873194911, 11.199851992229469 0.031037749350070865 C13.12514417154905 -0.5048733886193494, 13.255972437339697 -2.9680767075332026, 12.042469710608248 -3.8327936700649614 C10.8289669838768 -4.69751063259672, 5.919858308026127 -5.689086652519517, 3.918835631840784 -5.157264025840481 C1.917812955655442 -4.625441399161446, 0.5048223873529651 -1.567527345209271, 0.03633365349619455 -0.6418579099907447 C-0.432155080360576 0.28381152522778164, 1.1732832951125982 0.3406640760876409, 1.1079032287001611 0.3967525854706764 M-0.7107958614360541 1.6729726202320307 C1.654806723012046 2.1945799879264087, 11.552747606151701 2.8199164629124116, 13.605205387022815 1.5847578189801426 C15.65766316789393 0.34959917504787374, 13.143813883189903 -4.243644072123445, 11.603950823790628 -5.737979243361583 C10.064087764391353 -7.2323144145997205, 5.9776021724301645 -8.20500800522078, 4.366027030627166 -7.381253208448684 C2.7544518888241667 -6.557498411676589, 2.75520614475236 -1.9531739190080022, 1.934499972972635 -0.7954504627290091 C1.11379380119291 0.362272993549984, -0.25248054343002735 -0.26558621497860346, -0.5582100000511856 -0.43491247077472517" stroke="#ffa7ca" stroke-width="2" fill="none"></path></g></g><g><g transform="translate(909.6776495503686 130.38611178245498) rotate(0 23.092388141200445 -30.895941385371458)"><path d="M-0.10565558820962906 -0.10089846700429916 C2.897153104510585 -1.8055650868349666, 12.753384710958784 -6.449748099126244, 18.413953402141807 -10.55376271655166 C24.07452209332483 -14.657777333977076, 27.265959625608403 -21.451830081420866, 33.85775655888851 -24.724986171556793 C40.44955349216862 -27.99814226169272, 53.96106565688508 -29.674358219405036, 57.96473500182246 -30.192699257367213 C61.96840434675984 -30.71104029532939, 57.8396052208765 -24.500410855092376, 57.879772628512775 -27.83503239932986 C57.91994003614905 -31.169653943567347, 58.56347610404098 -42.94344827494137, 58.2057394476401 -50.20042852279214 C57.84800279123922 -57.45740877064291, 61.31549623172611 -69.85110321911394, 55.733352690107495 -71.37691388643448 C50.15120914848888 -72.90272455375502, 30.358257834834262 -61.07939963147598, 24.712878197928422 -59.35529252671536 C19.067498561022582 -57.63118542195474, 27.019688792416385 -59.849002659596806, 21.86107486867245 -61.032271257870754 C16.702460944928514 -62.2155398561447, -0.39091727573559165 -69.22415383993477, -6.238805344535194 -66.45490411635903 C-12.086693413334796 -63.68565439278329, -12.474914897978193 -50.98000327376301, -13.226253544125166 -44.41677291641629 C-13.977592190272139 -37.853542559069574, -14.047402815631024 -35.25532953457695, -10.746837221417035 -27.075521972278715 C-7.446271627203046 -18.895714409980478, 3.5779959244310633 -0.6709424458719964, 6.577140021158766 4.662072457373142 C9.57628411788647 9.995087360618282, 7.041448784592005 4.525235900338028, 7.248027358949185 4.9225674471921135 M-1.6202635013591498 -1.199474107520655 C1.7236612266436757 -2.7220016003948597, 14.790844030537265 -5.080932726139524, 20.66921003713901 -9.320734766519976 C26.547576043740754 -13.560536806900428, 27.332829067521843 -22.786999477718872, 33.64993253825131 -26.638286349803366 C39.967036008980784 -30.48957322188786, 54.78913695582892 -32.36468690166562, 58.57183086151583 -32.42845599902693 C62.35452476720273 -32.49222509638824, 56.72378382004225 -24.395250525051992, 56.34609597237276 -27.020900933971202 C55.96840812470327 -29.64655134289041, 56.83776748324128 -41.10428289752007, 56.30570377549886 -48.18235845254218 C55.773640067756446 -55.26043400756429, 58.047429735519664 -67.63894160054035, 53.15371372591828 -69.48935426410388 C48.259997716316896 -71.33976692766741, 32.351748000650886 -60.995605497412335, 26.94340771789057 -59.2848344339234 C21.535067435130255 -57.574063370434466, 26.616334178681974 -57.95956223326393, 20.703672029356394 -59.22472788317028 C14.791009880030813 -60.48989353307663, -2.892097761474032 -69.53738092023708, -8.532565178062923 -66.8758283333615 C-14.173032594651813 -64.21427574648591, -13.049308170927574 -50.337681813413525, -13.139132470176946 -43.25541236191674 C-13.228956769426318 -36.173142910419955, -12.428190285627165 -32.777293718222275, -9.071510973559153 -24.382211624380783 C-5.714831661491141 -15.98712953053929, 3.8548871810484444 1.7569057317826724, 7.000943402231123 7.115080201132223 C10.146999623413802 12.473254670481772, 9.63083235310428 7.789471556403895, 9.80482635353692 7.766835191716519" stroke="#ffa7ca" stroke-width="2" fill="none"></path></g></g><g><g transform="translate(920.727996772591 62.143924282454975) rotate(0 15.752817627606987 -13.424225332292536)"><path d="M-0.02249885648489003 1.1576986178755762 C-0.14077445119619375 -1.1725209599843687, -3.337550270833322 -8.037734507796912, -0.730016528069973 -12.92175007677738 C1.8775172146933756 -17.805765645757848, 12.189130846824733 -25.8801128221331, 15.622703600095202 -28.146394796007236 C19.056276353365668 -30.412676769881372, 17.194825082520644 -31.717162710814588, 19.87141999155283 -26.51944192002219 C22.548014900585017 -21.32172112922979, 29.64254784423981 -1.980881063308984, 31.682273054288316 3.039929948747158 M-1.4934494854789229 0.719886446921155 C-1.2218410562258215 -1.4486123451421475, -1.1429056014178922 -10.114897155612333, 1.5986793310660867 -14.743933720030899 C4.340264263550066 -19.372970284449465, 11.890958148626847 -25.254427532304994, 14.956060109424952 -27.05433293959025 C18.021162070223056 -28.854238346875505, 16.9394503750621 -30.59966644203741, 19.989291095854714 -25.543366163742437 C23.039131816647327 -20.487065885447464, 31.064937987338123 -1.4262835648045389, 33.25510443418062 3.2834687301795933" stroke="#ffa7ca" stroke-width="2" fill="none"></path></g></g><g><g transform="translate(953.5838995503686 65.46423678245498) rotate(0 -18.875551438165985 -3.855739162388403)"><path d="M0.785845698416233 -0.8422917500138283 C-3.781101025309803 -1.152505925132175, -21.95440713194771 0.3500235600051762, -27.703606584171304 -0.9429037069281321 C-33.4528060363949 -2.2358309738614404, -31.90379401649584 -7.32441934761079, -33.709351014925325 -8.599855351613678 C-35.514908013354805 -9.875291355616568, -37.736114397589716 -8.356645085359101, -38.5369485747482 -8.595519730945465 M-0.2607240392547101 1.3299011358898132 C-4.947466685915755 1.130690964951898, -23.395897470867393 1.999873567924771, -28.58081112948852 0.5164892856559029 C-33.765724788109644 -0.9668949966129652, -29.804061729742706 -6.257205487130674, -31.370205990981468 -7.570404557723395 C-32.93635025222023 -8.883603628316116, -36.59585516196735 -6.913082358356674, -37.97767669692108 -7.362705137900425" stroke="#ffa7ca" stroke-width="2" fill="none"></path></g></g><g><g transform="translate(950.5109828837021 10.95468817134389) rotate(0 -8.880299639147893 12.32934705162728)"><path d="M-0.8585991516709328 0.16034969240427022 C-9.195378595976923 0.652768135236363, -38.93399680913602 1.4278155487444317, -49.35201184236344 2.474204498032691 C-59.77002687559086 3.52059344732095, -60.124587528076376 4.970964629727361, -63.36668935103544 6.438683388133825 C-66.6087911739945 7.906402146540288, -67.54060611476508 9.989705243099586, -68.80462278011782 11.280517048471472 C-70.06863944547057 12.571328853843358, -74.79081450496568 12.024396546847285, -70.95078934315188 14.183554220365147 C-67.11076418133808 16.34271189388301, -58.28027093073851 22.633308578586107, -45.76447180923501 24.23546308957865 C-33.24867268773151 25.837617600571196, -7.865827605624994 24.473872255561517, 4.144005385869105 23.796481286320407 C16.153838377363204 23.119090317079298, 18.04656024757361 23.06315391168546, 26.294526139729577 20.171117274131994 C34.542492031885544 17.279080636578527, 58.187627220871306 9.861015019758938, 53.6318007388049 6.44426146099961 C49.07597425673849 3.0275079022402815, 8.008912304430101 0.9043135803606712, -1.0404327526688575 -0.3294040784239769 M0.8914975643623619 -0.8010706644225867 C-7.640811161738652 -0.6426137492360818, -39.339140218162804 -0.33968158327563935, -50.17405623156476 0.5294933607211578 C-61.00897224496672 1.3986683047179551, -61.128647268930806 2.4032138456711003, -64.1179985160494 4.413978999558196 C-67.10734976316799 6.4247441534452925, -66.70870329454858 10.900739913376151, -68.11016371427631 12.594084284043735 C-69.51162413400404 14.287428654711318, -75.97624558478363 12.800742655267106, -72.52676103441573 14.574045223563697 C-69.07727648404783 16.34734779186029, -60.29727139757513 21.413773908276013, -47.413256412068925 23.233899693823286 C-34.52924142656272 25.05402547937056, -7.293898144218451 25.960903810839746, 4.777328878621493 25.494799936847336 C16.848555901461438 25.028696062854927, 16.586765082856253 23.320757839936654, 25.014105724970733 20.437276449868826 C33.44144636708521 17.553795059800997, 59.64684783415906 11.759239033309147, 55.341372731308375 8.193911596440362 C51.03589762845769 4.628584159571577, 8.520270386473108 0.4902918783523491, -0.8187448921334 -0.954688171343878" stroke="#ffa7ca" stroke-width="2" fill="none"></path></g></g><g><g transform="translate(395.4698122487814 79.81803142531209) rotate(0 35.91578547430561 23.530947345885153)"><path d="M-0.47006541341543195 -0.9275709763169289 C0.511935757242509 -0.39735083785794634, -4.56153825258918 -4.714218414184582, 5.687250419812608 2.5752826284085244 C15.936039092214397 9.86478367100163, 49.911440800272274 35.15209911004426, 61.0226666209953 42.80943527924171 C72.13389244171833 50.46677144843916, 70.54541177614816 47.32061876817835, 72.35460534415077 48.51929964359324 M1.4840115152020008 1.199850315777585 C2.292780292893194 1.4392295563784248, -5.247367047901154 -6.245996918409077, 4.540441114086988 0.8232859470442713 C14.32824927607513 7.89256881249762, 48.851263379717594 35.547831514959874, 60.21086048713085 43.61554750849767 C71.57045759454411 51.683263502035466, 70.41432945784403 48.036031910648994, 72.69802375856655 49.22958190827105" stroke="#ffa7ca" stroke-width="2" fill="none"></path></g></g><g><g transform="translate(393.6115533202101 80.8894599967407) rotate(0 -18.632705892682452 25.380294783941594)"><path d="M-0.2998498097062111 0.34983567148447037 C-6.869471343145507 4.803184905293444, -37.35658958504609 18.720055424386555, -38.33274820170245 27.03789491291558 C-39.308906818358814 35.35573440144461, -11.419750806050743 46.21535154616549, -6.156801509644401 50.25687260265862 M1.7435903108585626 -0.5121045463252814 C-5.0336897539485115 3.5962770334342946, -37.63921486114784 16.815352716661906, -39.00900209622338 25.446152493417536 C-40.37878933129891 34.076952270173166, -11.914155382424962 46.7420453862948, -6.47513309959465 51.2726941142085" stroke="#ffa7ca" stroke-width="2" fill="none"></path></g></g><g><g transform="translate(962.2443658202101 217.36825463959786) rotate(0 5.76867482243199 10.174150512955123)"><path d="M0.011342655122280165 0.3213054075837136 C-0.7624784603714942 1.6998584552180092, -4.9449549059782765 3.9558778681215245, -4.691670526564121 7.357726509017539 C-4.438386147149966 10.759575149913553, -1.5512731413755771 19.569862300796103, 1.5310489316072107 20.7323972529598 C4.6133710045899985 21.894932205123496, 11.444475898501446 16.85908019294334, 13.802261911332607 14.332936221999717 C16.16004792416377 11.806792251056095, 17.92387005963483 7.803821258104971, 15.677765008594179 5.575533427298069 C13.43165995755353 3.3472455964911663, 2.9597446284833193 1.729762114584446, 0.3256316050887107 0.9632092371582985 M-1.4418411802779882 -0.5556131987739354 C-2.287752170218155 1.1026104470692644, -5.572448538069486 5.620763193357769, -5.14971801663749 8.867333177473064 C-4.726987495205493 12.11390316158836, -2.0517386625454037 17.84868991210651, 1.0945419483139904 18.923806705917833 C4.240822559173385 19.998923499729155, 11.512101463182812 17.512712927165676, 13.727965648518875 15.318033940340992 C15.943829833854938 13.123354953516309, 16.96958370609329 8.237249454518414, 14.389727060330369 5.755732784969732 C11.809870414567449 3.2742161154210496, 0.5722137017658739 1.3643985367845741, -1.7511742260586471 0.42893392304889844" stroke="#ffa7ca" stroke-width="2" fill="none"></path></g></g></svg>